Coordinates
version=1
nRows=5
nColumns=46
inDegrees=yes

Units are S.I. units (second, meters, Newtons, ...)
Angles are in degrees.

endheader
time	pelvis_tilt	pelvis_list	pelvis_rotation	pelvis_tx	pelvis_ty	pelvis_tz	bb_angle	bb_tx	bb_ty	bb_tz	hip_flexion_r	hip_adduction_r	hip_rotation_r	knee_angle_r	knee_angle_r_beta	ankle_angle_r	subtalar_angle_r	mtp_angle_r	crank_angle_r	hip_flexion_l	hip_adduction_l	hip_rotation_l	knee_angle_l	knee_angle_l_beta	ankle_angle_l	subtalar_angle_l	mtp_angle_l	crank_angle_l	lumbar_extension	lumbar_bending	lumbar_rotation	arm_flex_r	arm_add_r	arm_rot_r	elbow_flex_r	pro_sup_r	wrist_flex_r	wrist_dev_r	arm_flex_l	arm_add_l	arm_rot_l	elbow_flex_l	pro_sup_l	wrist_flex_l	wrist_dev_l
      2.50500000	    -26.25673703	      0.59559597	      1.17495006	      0.17143990	      1.04165765	     -0.20424425	      0.00000000	      0.50000000	      0.00000000	      0.25000000	     67.54048688	     -1.24475673	      6.70329841	     88.46345415	      1.54397854	    -16.79629507	    -13.69564073	      0.00000000	      0.00000000	     69.77806912	     -1.02015140	      4.00654073	     58.38017410	      1.01892626	     22.20382408	    -17.04914859	      0.00000000	      0.00000000	    -48.93199238	     -4.85789997	     -5.76800866	     67.75374361	    -10.02953026	     17.53958667	     71.28239570	     47.00889022	      0.00000000	      0.00000000	     68.98368973	    -18.50731211	     21.47039427	     80.36866574	     47.68867138	      0.00000000	      0.00000000
      2.51000000	    -26.28587556	      0.33284633	      1.00641449	      0.17266205	      1.04154138	     -0.20409747	      0.00000000	      0.50000000	      0.00000000	      0.25000000	     68.03951728	     -1.00346186	      6.51280550	     89.46512272	      1.56146096	    -16.49108433	    -13.50001489	      0.00000000	      0.00000000	     69.15711181	     -1.37692165	      4.09948872	     57.36535364	      1.00121430	     21.53370440	    -16.70078039	      0.00000000	      0.00000000	    -48.73138458	     -4.74927794	     -5.62418994	     67.63125278	    -10.02785821	     17.80177985	     71.03844602	     47.06937699	      0.00000000	      0.00000000	     68.47006060	    -18.58179460	     21.27615430	     80.49770534	     47.75545805	      0.00000000	      0.00000000
      2.51500000	    -26.27115293	     -0.01346657	      0.88137522	      0.17392100	      1.04139781	     -0.20400839	      0.00000000	      0.50000000	      0.00000000	      0.25000000	     68.48598872	     -0.72844980	      6.27531843	     90.48354323	      1.57923575	    -16.31346379	    -12.91267441	      0.00000000	      0.00000000	     68.54884963	     -1.76420096	      4.25526848	     56.46560015	      0.98551064	     21.03174330	    -16.24953540	      0.00000000	      0.00000000	    -48.52288295	     -4.53458949	     -5.28171564	     67.17586487	     -9.91817802	     17.54619319	     71.22030494	     47.01263107	      0.00000000	      0.00000000	     67.86670506	    -18.41213340	     20.84484871	     80.48713144	     47.66692676	      0.00000000	      0.00000000
      2.52000000	    -26.18927695	     -0.08689170	      0.69555866	      0.17521452	      1.04175553	     -0.20369774	      0.00000000	      0.50000000	      0.00000000	      0.25000000	     68.88761727	     -0.53299054	      6.27104790	     91.42380325	      1.59564638	    -16.27086027	    -12.97582679	      0.00000000	      0.00000000	     67.71158074	     -2.03962296	      4.17929008	     55.32589155	      0.96561897	     20.10266929	    -16.12534574	      0.00000000	      0.00000000	    -48.52909732	     -4.63942654	     -5.23447686	     67.18841513	    -10.14053164	     18.02108822	     70.90161859	     47.06243960	      0.00000000	      0.00000000	     67.70007909	    -18.40084359	     20.89594473	     80.44959482	     47.71949388	      0.00000000	      0.00000000
      2.52500000	    -26.21514393	     -0.44056927	      0.57585094	      0.17655796	      1.04166587	     -0.20348077	      0.00000000	      0.50000000	      0.00000000	      0.25000000	     69.38911516	     -0.26752955	      5.99661875	     92.41410356	      1.61293038	    -15.86536563	    -12.57733555	      0.00000000	      0.00000000	     67.13759452	     -2.47574492	      4.22309177	     54.40412149	      0.94953105	     19.46072868	    -15.65755665	      0.00000000	      0.00000000	    -48.32113412	     -4.39087261	     -4.91232206	     66.84057195	    -10.01391415	     17.82171675	     71.09294647	     47.01368971	      0.00000000	      0.00000000	     67.21109202	    -18.21554367	     20.47918920	     80.41913549	     47.63046697	      0.00000000	      0.00000000
